<svg width="24" height="22" viewBox="0 0 24 22" fill="none" xmlns="http://www.w3.org/2000/svg">
<mask id="path-1-outside-1_612_324" maskUnits="userSpaceOnUse" x="-0.0771484" y="-0.682503" width="24" height="23" fill="black">
<rect fill="white" x="-0.0771484" y="-0.682503" width="24" height="23"/>
<path d="M1.25144 8.93478L4.55781 11.0053V14.452C4.55781 14.7419 4.68553 15.0061 4.8864 15.132L11.2117 19.093C11.2903 19.1421 11.3764 19.1677 11.4637 19.1677H12.5266C12.6139 19.1677 12.6999 19.1421 12.7786 19.093L19.0864 15.1428C19.2087 15.0662 19.3065 14.9363 19.3628 14.7758C19.3707 14.7532 19.3783 14.7303 19.3859 14.7073C19.4167 14.6136 19.4325 14.5127 19.4325 14.4109V11.0052L20.3344 10.4405V15.1143C20.1393 15.2835 19.9888 15.5369 19.916 15.8454L19.4028 18.0191C19.3396 18.2872 19.3413 18.57 19.4079 18.8367L19.8837 20.7433C20.0195 21.2871 20.406 21.6643 20.8455 21.6819C20.8485 21.682 20.8514 21.6821 20.8543 21.6821L20.8688 21.6824C20.8718 21.6825 20.8748 21.6825 20.8779 21.6825C21.31 21.6825 21.6916 21.3447 21.85 20.8219L22.4002 19.0063C22.4851 18.7263 22.4958 18.4131 22.4304 18.1245L21.9174 15.8602C21.8459 15.5445 21.6942 15.2853 21.4955 15.1134V9.71346L22.7481 8.92904C22.949 8.80322 23.0767 8.53901 23.0767 8.24908V7.64803C23.0767 7.35816 22.949 7.09389 22.7481 6.96807L12.2471 0.392259C12.0878 0.292577 11.9024 0.292577 11.7432 0.392259L1.25144 6.96233C1.05057 7.0881 0.922852 7.35237 0.922852 7.6423V8.25488C0.922852 8.54475 1.05057 8.80896 1.25144 8.93478ZM20.8883 19.8776L20.5236 18.4163L20.9126 16.7684L21.3053 18.5014L20.8883 19.8776ZM18.2714 13.9779L12.3941 17.6584H11.5962L5.7189 13.9779V11.7325L11.7432 15.505C11.8228 15.5548 11.909 15.5797 11.9952 15.5797C12.0814 15.5797 12.1675 15.5548 12.2471 15.505L18.2715 11.7325L18.2714 13.9779ZM11.9951 1.90989L21.6383 7.94859L18.6769 9.80306C18.6508 9.81381 18.6251 9.82642 18.6 9.84206L11.9951 13.9782L5.39027 9.84206C5.36523 9.82642 5.3395 9.81381 5.31345 9.80306L2.35202 7.94853L11.9951 1.90989Z"/>
</mask>
<path d="M1.25144 8.93478L4.55781 11.0053V14.452C4.55781 14.7419 4.68553 15.0061 4.8864 15.132L11.2117 19.093C11.2903 19.1421 11.3764 19.1677 11.4637 19.1677H12.5266C12.6139 19.1677 12.6999 19.1421 12.7786 19.093L19.0864 15.1428C19.2087 15.0662 19.3065 14.9363 19.3628 14.7758C19.3707 14.7532 19.3783 14.7303 19.3859 14.7073C19.4167 14.6136 19.4325 14.5127 19.4325 14.4109V11.0052L20.3344 10.4405V15.1143C20.1393 15.2835 19.9888 15.5369 19.916 15.8454L19.4028 18.0191C19.3396 18.2872 19.3413 18.57 19.4079 18.8367L19.8837 20.7433C20.0195 21.2871 20.406 21.6643 20.8455 21.6819C20.8485 21.682 20.8514 21.6821 20.8543 21.6821L20.8688 21.6824C20.8718 21.6825 20.8748 21.6825 20.8779 21.6825C21.31 21.6825 21.6916 21.3447 21.85 20.8219L22.4002 19.0063C22.4851 18.7263 22.4958 18.4131 22.4304 18.1245L21.9174 15.8602C21.8459 15.5445 21.6942 15.2853 21.4955 15.1134V9.71346L22.7481 8.92904C22.949 8.80322 23.0767 8.53901 23.0767 8.24908V7.64803C23.0767 7.35816 22.949 7.09389 22.7481 6.96807L12.2471 0.392259C12.0878 0.292577 11.9024 0.292577 11.7432 0.392259L1.25144 6.96233C1.05057 7.0881 0.922852 7.35237 0.922852 7.6423V8.25488C0.922852 8.54475 1.05057 8.80896 1.25144 8.93478ZM20.8883 19.8776L20.5236 18.4163L20.9126 16.7684L21.3053 18.5014L20.8883 19.8776ZM18.2714 13.9779L12.3941 17.6584H11.5962L5.7189 13.9779V11.7325L11.7432 15.505C11.8228 15.5548 11.909 15.5797 11.9952 15.5797C12.0814 15.5797 12.1675 15.5548 12.2471 15.505L18.2715 11.7325L18.2714 13.9779ZM11.9951 1.90989L21.6383 7.94859L18.6769 9.80306C18.6508 9.81381 18.6251 9.82642 18.6 9.84206L11.9951 13.9782L5.39027 9.84206C5.36523 9.82642 5.3395 9.81381 5.31345 9.80306L2.35202 7.94853L11.9951 1.90989Z" fill="black"/>
<path d="M1.25144 8.93478L4.55781 11.0053V14.452C4.55781 14.7419 4.68553 15.0061 4.8864 15.132L11.2117 19.093C11.2903 19.1421 11.3764 19.1677 11.4637 19.1677H12.5266C12.6139 19.1677 12.6999 19.1421 12.7786 19.093L19.0864 15.1428C19.2087 15.0662 19.3065 14.9363 19.3628 14.7758C19.3707 14.7532 19.3783 14.7303 19.3859 14.7073C19.4167 14.6136 19.4325 14.5127 19.4325 14.4109V11.0052L20.3344 10.4405V15.1143C20.1393 15.2835 19.9888 15.5369 19.916 15.8454L19.4028 18.0191C19.3396 18.2872 19.3413 18.57 19.4079 18.8367L19.8837 20.7433C20.0195 21.2871 20.406 21.6643 20.8455 21.6819C20.8485 21.682 20.8514 21.6821 20.8543 21.6821L20.8688 21.6824C20.8718 21.6825 20.8748 21.6825 20.8779 21.6825C21.31 21.6825 21.6916 21.3447 21.85 20.8219L22.4002 19.0063C22.4851 18.7263 22.4958 18.4131 22.4304 18.1245L21.9174 15.8602C21.8459 15.5445 21.6942 15.2853 21.4955 15.1134V9.71346L22.7481 8.92904C22.949 8.80322 23.0767 8.53901 23.0767 8.24908V7.64803C23.0767 7.35816 22.949 7.09389 22.7481 6.96807L12.2471 0.392259C12.0878 0.292577 11.9024 0.292577 11.7432 0.392259L1.25144 6.96233C1.05057 7.0881 0.922852 7.35237 0.922852 7.6423V8.25488C0.922852 8.54475 1.05057 8.80896 1.25144 8.93478ZM20.8883 19.8776L20.5236 18.4163L20.9126 16.7684L21.3053 18.5014L20.8883 19.8776ZM18.2714 13.9779L12.3941 17.6584H11.5962L5.7189 13.9779V11.7325L11.7432 15.505C11.8228 15.5548 11.909 15.5797 11.9952 15.5797C12.0814 15.5797 12.1675 15.5548 12.2471 15.505L18.2715 11.7325L18.2714 13.9779ZM11.9951 1.90989L21.6383 7.94859L18.6769 9.80306C18.6508 9.81381 18.6251 9.82642 18.6 9.84206L11.9951 13.9782L5.39027 9.84206C5.36523 9.82642 5.3395 9.81381 5.31345 9.80306L2.35202 7.94853L11.9951 1.90989Z" stroke="black" stroke-width="0.4" mask="url(#path-1-outside-1_612_324)"/>
</svg>
